<svg width="148" height="41" viewBox="0 0 148 41" fill="none" xmlns="http://www.w3.org/2000/svg">
<g clip-path="url(#clip0_41_806)">
<path d="M41 20.5C41 21.101 40.975 21.682 40.9149 22.268C40.8147 23.4851 40.6093 24.6671 40.2988 25.8141C39.9933 26.966 39.5876 28.083 39.0817 29.1548C38.5709 30.2466 37.9748 31.2884 37.2837 32.2601C36.6025 33.2418 35.8312 34.1483 34.9998 34.9847C34.1483 35.8362 33.2317 36.6075 32.245 37.2937C31.2784 37.9748 30.2567 38.5709 29.1798 39.0767C28.103 39.5776 26.971 39.9933 25.799 40.3088C24.6671 40.6143 23.5001 40.8197 22.2981 40.9149C21.7071 40.975 21.106 41 20.5 41C19.894 41 19.2929 40.975 18.7019 40.9149C17.5049 40.8147 16.3329 40.6093 15.201 40.3088C14.034 39.9983 12.907 39.5876 11.8302 39.0767C10.7534 38.5759 9.7216 37.9748 8.75495 37.2937C7.76826 36.6125 6.84669 35.8362 6.00024 34.9847C5.16382 34.1483 4.39751 33.2367 3.71634 32.2651C3.03518 31.2834 2.42414 30.2466 1.91827 29.1498C1.41742 28.0779 1.00672 26.961 0.701197 25.8091C0.390667 24.6621 0.185316 23.4851 0.0851454 22.273C0.0250428 21.687 0 21.096 0 20.495C0 19.894 0.0250428 19.303 0.0851454 18.717C0.185316 17.4999 0.390667 16.3229 0.701197 15.1809C1.00672 14.029 1.41241 12.9121 1.91827 11.8402C2.42915 10.7484 3.03518 9.70658 3.71634 8.7249C4.39751 7.75324 5.16882 6.84169 6.00024 6.00526C6.8517 5.15381 7.76826 4.38249 8.75495 3.69632C9.7216 3.01516 10.7534 2.41413 11.8302 1.91327C12.907 1.4024 14.034 0.996709 15.201 0.68117C16.3329 0.375649 17.4999 0.170298 18.7019 0.0751356C19.2929 0.015033 19.894 -0.0100098 20.5 -0.0100098C21.106 -0.0100098 21.7071 0.015033 22.2981 0.0751356C23.5001 0.175307 24.6671 0.380657 25.799 0.68117C26.966 0.9917 28.098 1.41242 29.1798 1.91327C30.2567 2.42415 31.2834 3.01516 32.245 3.69632C33.2317 4.37748 34.1533 5.15381 34.9998 6.00526C35.8362 6.84169 36.6025 7.75324 37.2837 8.72991C37.9748 9.70157 38.5759 10.7433 39.0817 11.8352C39.5826 12.907 39.9933 14.0239 40.2988 15.1759C40.6093 16.3229 40.8147 17.5049 40.9149 18.722C40.975 19.308 41 19.889 41 20.49V20.5Z" fill="#5294F3"/>
<path d="M30.8577 20.5L40.9199 22.268C40.8197 23.4851 40.6143 24.6671 40.3038 25.8141L30.2266 24.036L39.0867 29.1548C38.5759 30.2466 37.9798 31.2884 37.2887 32.2601L28.4335 27.1514L34.9998 34.9847C34.1483 35.8362 33.2317 36.6075 32.245 37.2937L25.6788 29.4653L29.1798 39.0767C28.103 39.5776 26.971 39.9933 25.799 40.3088L22.2981 30.6974V40.9199C21.7071 40.98 21.106 41.005 20.5 41.005C19.894 41.005 19.2929 40.98 18.7019 40.9199V30.6974L15.201 40.3088C14.034 39.9983 12.907 39.5876 11.8302 39.0767L15.3212 29.4653L8.75495 37.2937C7.76826 36.6125 6.84669 35.8362 6.00024 34.9847L12.5765 27.1514L3.71634 32.2701C3.03518 31.2884 2.42414 30.2516 1.91827 29.1548L10.7784 24.036L0.701196 25.8141C0.390666 24.6671 0.185315 23.4901 0.085144 22.278L10.1523 20.5L0.085144 18.722C0.185315 17.5049 0.390666 16.3279 0.701196 15.1859L10.7784 16.964L1.91326 11.8452C2.42414 10.7534 3.03017 9.71158 3.71133 8.7299L12.5715 13.8486L5.99523 6.01026C6.84669 5.15881 7.76325 4.38749 8.74994 3.70132L15.3161 11.5297L11.8302 1.92328C12.907 1.41241 14.034 1.00672 15.201 0.69118L18.7019 10.3026V0.0851454C19.2929 0.0250428 19.894 0 20.5 0C21.106 0 21.7071 0.0250428 22.2981 0.0851454V10.3076L25.799 0.69118C26.966 1.00171 28.098 1.42243 29.1798 1.92328L25.6788 11.5347L32.245 3.70633C33.2317 4.38749 34.1533 5.16382 34.9998 6.01527L28.4335 13.8537L37.2887 8.74493C37.9798 9.71659 38.5809 10.7584 39.0867 11.8502L30.2266 16.969L40.3038 15.1909C40.6143 16.3379 40.8197 17.5199 40.9199 18.737L30.8577 20.505V20.5Z" fill="white"/>
<path d="M20.5 36.8178C29.5121 36.8178 36.8178 29.5121 36.8178 20.5C36.8178 11.4879 29.5121 4.18213 20.5 4.18213C11.4879 4.18213 4.18213 11.4879 4.18213 20.5C4.18213 29.5121 11.4879 36.8178 20.5 36.8178Z" fill="#5294F3"/>
<path d="M20.5 34.9897C28.5025 34.9897 34.9897 28.5025 34.9897 20.5C34.9897 12.4975 28.5025 6.01025 20.5 6.01025C12.4975 6.01025 6.01025 12.4975 6.01025 20.5C6.01025 28.5025 12.4975 34.9897 20.5 34.9897Z" fill="#6892EF"/>
<path d="M17.1661 10C16.0388 16.1565 15.1275 17.0788 9 18.2126C15.1217 19.3463 16.0388 20.2628 17.1661 26.4251C18.2935 20.2686 19.2048 19.3463 25.3323 18.2126C19.2106 17.0788 18.2935 16.1624 17.1661 10Z" fill="#5294F3"/>
<path d="M26.0274 21.5552C25.3089 25.4735 24.7307 26.055 20.8345 26.7776C24.7307 27.5002 25.3089 28.0817 26.0274 32C26.7459 28.0817 27.3242 27.5002 31.2203 26.7776C27.3242 26.055 26.7459 25.4735 26.0274 21.5552Z" fill="#5294F3"/>
<path d="M16.1661 9C15.0388 15.1565 14.1275 16.0788 8 17.2126C14.1217 18.3463 15.0388 19.2628 16.1661 25.4251C17.2935 19.2686 18.2048 18.3463 24.3323 17.2126C18.2106 16.0788 17.2935 15.1624 16.1661 9Z" fill="white"/>
<path d="M25.0274 20.5552C24.3089 24.4735 23.7307 25.055 19.8345 25.7776C23.7307 26.5002 24.3089 27.0817 25.0274 31C25.7459 27.0817 26.3242 26.5002 30.2203 25.7776C26.3242 25.055 25.7459 24.4735 25.0274 20.5552Z" fill="white"/>
</g>
<g clip-path="url(#clip1_41_806)">
<path d="M93 20.5C93 21.101 92.975 21.682 92.9149 22.268C92.8147 23.4851 92.6093 24.6671 92.2988 25.8141C91.9933 26.966 91.5876 28.083 91.0817 29.1548C90.5709 30.2466 89.9748 31.2884 89.2837 32.2601C88.6025 33.2418 87.8312 34.1483 86.9998 34.9847C86.1483 35.8362 85.2317 36.6075 84.245 37.2937C83.2784 37.9748 82.2567 38.5709 81.1798 39.0767C80.103 39.5776 78.971 39.9933 77.799 40.3088C76.6671 40.6143 75.5001 40.8197 74.2981 40.9149C73.7071 40.975 73.106 41 72.5 41C71.894 41 71.2929 40.975 70.7019 40.9149C69.5049 40.8147 68.3329 40.6093 67.201 40.3088C66.034 39.9983 64.907 39.5876 63.8302 39.0767C62.7534 38.5759 61.7216 37.9748 60.7549 37.2937C59.7683 36.6125 58.8467 35.8362 58.0002 34.9847C57.1638 34.1483 56.3975 33.2367 55.7163 32.2651C55.0352 31.2834 54.4241 30.2466 53.9183 29.1498C53.4174 28.0779 53.0067 26.961 52.7012 25.8091C52.3907 24.6621 52.1853 23.4851 52.0851 22.273C52.025 21.687 52 21.096 52 20.495C52 19.894 52.025 19.303 52.0851 18.717C52.1853 17.4999 52.3907 16.3229 52.7012 15.1809C53.0067 14.029 53.4124 12.9121 53.9183 11.8402C54.4291 10.7484 55.0352 9.70658 55.7163 8.7249C56.3975 7.75324 57.1688 6.84169 58.0002 6.00526C58.8517 5.15381 59.7683 4.38249 60.7549 3.69632C61.7216 3.01516 62.7534 2.41413 63.8302 1.91327C64.907 1.4024 66.034 0.996709 67.201 0.68117C68.3329 0.375649 69.4999 0.170298 70.7019 0.0751356C71.2929 0.015033 71.894 -0.0100098 72.5 -0.0100098C73.106 -0.0100098 73.7071 0.015033 74.2981 0.0751356C75.5001 0.175307 76.6671 0.380657 77.799 0.68117C78.966 0.9917 80.098 1.41242 81.1798 1.91327C82.2567 2.42415 83.2834 3.01516 84.245 3.69632C85.2317 4.37748 86.1533 5.15381 86.9998 6.00526C87.8362 6.84169 88.6025 7.75324 89.2837 8.72991C89.9748 9.70157 90.5759 10.7433 91.0817 11.8352C91.5826 12.907 91.9933 14.0239 92.2988 15.1759C92.6093 16.3229 92.8147 17.5049 92.9149 18.722C92.975 19.308 93 19.889 93 20.49V20.5Z" fill="#5294F3"/>
<path d="M82.8577 20.5L92.9199 22.268C92.8197 23.4851 92.6143 24.6671 92.3038 25.8141L82.2266 24.036L91.0867 29.1548C90.5759 30.2466 89.9798 31.2884 89.2887 32.2601L80.4335 27.1514L86.9998 34.9847C86.1483 35.8362 85.2317 36.6075 84.245 37.2937L77.6788 29.4653L81.1798 39.0767C80.103 39.5776 78.971 39.9933 77.799 40.3088L74.2981 30.6974V40.9199C73.7071 40.98 73.106 41.005 72.5 41.005C71.894 41.005 71.2929 40.98 70.7019 40.9199V30.6974L67.201 40.3088C66.034 39.9983 64.907 39.5876 63.8302 39.0767L67.3212 29.4653L60.7549 37.2937C59.7683 36.6125 58.8467 35.8362 58.0002 34.9847L64.5765 27.1514L55.7163 32.2701C55.0352 31.2884 54.4241 30.2516 53.9183 29.1548L62.7784 24.036L52.7012 25.8141C52.3907 24.6671 52.1853 23.4901 52.0851 22.278L62.1523 20.5L52.0851 18.722C52.1853 17.5049 52.3907 16.3279 52.7012 15.1859L62.7784 16.964L53.9133 11.8452C54.4241 10.7534 55.0302 9.71158 55.7113 8.7299L64.5715 13.8486L57.9952 6.01026C58.8467 5.15881 59.7633 4.38749 60.7499 3.70132L67.3161 11.5297L63.8302 1.92328C64.907 1.41241 66.034 1.00672 67.201 0.69118L70.7019 10.3026V0.0851454C71.2929 0.0250428 71.894 0 72.5 0C73.106 0 73.7071 0.0250428 74.2981 0.0851454V10.3076L77.799 0.69118C78.966 1.00171 80.098 1.42243 81.1798 1.92328L77.6788 11.5347L84.245 3.70633C85.2317 4.38749 86.1533 5.16382 86.9998 6.01527L80.4335 13.8537L89.2887 8.74493C89.9798 9.71659 90.5809 10.7584 91.0867 11.8502L82.2266 16.969L92.3038 15.1909C92.6143 16.3379 92.8197 17.5199 92.9199 18.737L82.8577 20.505V20.5Z" fill="white"/>
<path d="M72.5 36.8178C81.5121 36.8178 88.8178 29.5121 88.8178 20.5C88.8178 11.4879 81.5121 4.18213 72.5 4.18213C63.4879 4.18213 56.1821 11.4879 56.1821 20.5C56.1821 29.5121 63.4879 36.8178 72.5 36.8178Z" fill="#5294F3"/>
<path d="M72.5 34.9897C80.5025 34.9897 86.9897 28.5025 86.9897 20.5C86.9897 12.4975 80.5025 6.01025 72.5 6.01025C64.4975 6.01025 58.0103 12.4975 58.0103 20.5C58.0103 28.5025 64.4975 34.9897 72.5 34.9897Z" fill="#6892EF"/>
<path d="M69.1661 10C68.0388 16.1565 67.1275 17.0788 61 18.2126C67.1217 19.3463 68.0388 20.2628 69.1661 26.4251C70.2935 20.2686 71.2048 19.3463 77.3323 18.2126C71.2106 17.0788 70.2935 16.1624 69.1661 10Z" fill="#5294F3"/>
<path d="M78.0274 21.5552C77.3089 25.4735 76.7307 26.055 72.8345 26.7776C76.7307 27.5002 77.3089 28.0817 78.0274 32C78.7459 28.0817 79.3242 27.5002 83.2203 26.7776C79.3242 26.055 78.7459 25.4735 78.0274 21.5552Z" fill="#5294F3"/>
<path d="M68.1661 9C67.0388 15.1565 66.1275 16.0788 60 17.2126C66.1217 18.3463 67.0388 19.2628 68.1661 25.4251C69.2935 19.2686 70.2048 18.3463 76.3323 17.2126C70.2106 16.0788 69.2935 15.1624 68.1661 9Z" fill="white"/>
<path d="M77.0274 20.5552C76.3089 24.4735 75.7307 25.055 71.8345 25.7776C75.7307 26.5002 76.3089 27.0817 77.0274 31C77.7459 27.0817 78.3242 26.5002 82.2203 25.7776C78.3242 25.055 77.7459 24.4735 77.0274 20.5552Z" fill="white"/>
</g>
<g clip-path="url(#clip2_41_806)">
<path d="M148 20.5C148 21.101 147.975 21.682 147.915 22.268C147.815 23.4851 147.609 24.6671 147.299 25.8141C146.993 26.966 146.588 28.083 146.082 29.1548C145.571 30.2466 144.975 31.2884 144.284 32.2601C143.602 33.2418 142.831 34.1483 142 34.9847C141.148 35.8362 140.232 36.6075 139.245 37.2937C138.278 37.9748 137.257 38.5709 136.18 39.0767C135.103 39.5776 133.971 39.9933 132.799 40.3088C131.667 40.6143 130.5 40.8197 129.298 40.9149C128.707 40.975 128.106 41 127.5 41C126.894 41 126.293 40.975 125.702 40.9149C124.505 40.8147 123.333 40.6093 122.201 40.3088C121.034 39.9983 119.907 39.5876 118.83 39.0767C117.753 38.5759 116.722 37.9748 115.755 37.2937C114.768 36.6125 113.847 35.8362 113 34.9847C112.164 34.1483 111.398 33.2367 110.716 32.2651C110.035 31.2834 109.424 30.2466 108.918 29.1498C108.417 28.0779 108.007 26.961 107.701 25.8091C107.391 24.6621 107.185 23.4851 107.085 22.273C107.025 21.687 107 21.096 107 20.495C107 19.894 107.025 19.303 107.085 18.717C107.185 17.4999 107.391 16.3229 107.701 15.1809C108.007 14.029 108.412 12.9121 108.918 11.8402C109.429 10.7484 110.035 9.70658 110.716 8.7249C111.398 7.75324 112.169 6.84169 113 6.00526C113.852 5.15381 114.768 4.38249 115.755 3.69632C116.722 3.01516 117.753 2.41413 118.83 1.91327C119.907 1.4024 121.034 0.996709 122.201 0.68117C123.333 0.375649 124.5 0.170298 125.702 0.0751356C126.293 0.015033 126.894 -0.0100098 127.5 -0.0100098C128.106 -0.0100098 128.707 0.015033 129.298 0.0751356C130.5 0.175307 131.667 0.380657 132.799 0.68117C133.966 0.9917 135.098 1.41242 136.18 1.91327C137.257 2.42415 138.283 3.01516 139.245 3.69632C140.232 4.37748 141.153 5.15381 142 6.00526C142.836 6.84169 143.602 7.75324 144.284 8.72991C144.975 9.70157 145.576 10.7433 146.082 11.8352C146.583 12.907 146.993 14.0239 147.299 15.1759C147.609 16.3229 147.815 17.5049 147.915 18.722C147.975 19.308 148 19.889 148 20.49V20.5Z" fill="#5294F3"/>
<path d="M137.858 20.5L147.92 22.268C147.82 23.4851 147.614 24.6671 147.304 25.8141L137.227 24.036L146.087 29.1548C145.576 30.2466 144.98 31.2884 144.289 32.2601L135.434 27.1514L142 34.9847C141.148 35.8362 140.232 36.6075 139.245 37.2937L132.679 29.4653L136.18 39.0767C135.103 39.5776 133.971 39.9933 132.799 40.3088L129.298 30.6974V40.9199C128.707 40.98 128.106 41.005 127.5 41.005C126.894 41.005 126.293 40.98 125.702 40.9199V30.6974L122.201 40.3088C121.034 39.9983 119.907 39.5876 118.83 39.0767L122.321 29.4653L115.755 37.2937C114.768 36.6125 113.847 35.8362 113 34.9847L119.576 27.1514L110.716 32.2701C110.035 31.2884 109.424 30.2516 108.918 29.1548L117.778 24.036L107.701 25.8141C107.391 24.6671 107.185 23.4901 107.085 22.278L117.152 20.5L107.085 18.722C107.185 17.5049 107.391 16.3279 107.701 15.1859L117.778 16.964L108.913 11.8452C109.424 10.7534 110.03 9.71158 110.711 8.7299L119.571 13.8486L112.995 6.01026C113.847 5.15881 114.763 4.38749 115.75 3.70132L122.316 11.5297L118.83 1.92328C119.907 1.41241 121.034 1.00672 122.201 0.69118L125.702 10.3026V0.0851454C126.293 0.0250428 126.894 0 127.5 0C128.106 0 128.707 0.0250428 129.298 0.0851454V10.3076L132.799 0.69118C133.966 1.00171 135.098 1.42243 136.18 1.92328L132.679 11.5347L139.245 3.70633C140.232 4.38749 141.153 5.16382 142 6.01527L135.434 13.8537L144.289 8.74493C144.98 9.71659 145.581 10.7584 146.087 11.8502L137.227 16.969L147.304 15.1909C147.614 16.3379 147.82 17.5199 147.92 18.737L137.858 20.505V20.5Z" fill="white"/>
<path d="M127.5 36.8178C136.512 36.8178 143.818 29.5121 143.818 20.5C143.818 11.4879 136.512 4.18213 127.5 4.18213C118.488 4.18213 111.182 11.4879 111.182 20.5C111.182 29.5121 118.488 36.8178 127.5 36.8178Z" fill="#5294F3"/>
<path d="M127.5 34.9897C135.502 34.9897 141.99 28.5025 141.99 20.5C141.99 12.4975 135.502 6.01025 127.5 6.01025C119.498 6.01025 113.01 12.4975 113.01 20.5C113.01 28.5025 119.498 34.9897 127.5 34.9897Z" fill="#6892EF"/>
<path d="M124.166 10C123.039 16.1565 122.128 17.0788 116 18.2126C122.122 19.3463 123.039 20.2628 124.166 26.4251C125.294 20.2686 126.205 19.3463 132.332 18.2126C126.211 17.0788 125.294 16.1624 124.166 10Z" fill="#5294F3"/>
<path d="M133.027 21.5552C132.309 25.4735 131.731 26.055 127.834 26.7776C131.731 27.5002 132.309 28.0817 133.027 32C133.746 28.0817 134.324 27.5002 138.22 26.7776C134.324 26.055 133.746 25.4735 133.027 21.5552Z" fill="#5294F3"/>
<path d="M123.166 9C122.039 15.1565 121.128 16.0788 115 17.2126C121.122 18.3463 122.039 19.2628 123.166 25.4251C124.294 19.2686 125.205 18.3463 131.332 17.2126C125.211 16.0788 124.294 15.1624 123.166 9Z" fill="white"/>
<path d="M132.027 20.5552C131.309 24.4735 130.731 25.055 126.834 25.7776C130.731 26.5002 131.309 27.0817 132.027 31C132.746 27.0817 133.324 26.5002 137.22 25.7776C133.324 25.055 132.746 24.4735 132.027 20.5552Z" fill="white"/>
</g>
<defs>
<clipPath id="clip0_41_806">
<rect width="41" height="41" fill="white"/>
</clipPath>
<clipPath id="clip1_41_806">
<rect width="41" height="41" fill="white" transform="translate(52)"/>
</clipPath>
<clipPath id="clip2_41_806">
<rect width="41" height="41" fill="white" transform="translate(107)"/>
</clipPath>
</defs>
</svg>
