<svg width="169" height="45" viewBox="0 0 169 45" fill="none" xmlns="http://www.w3.org/2000/svg">
<g clip-path="url(#clip0_48_923)">
<path d="M153.24 0C151.976 6.90382 150.954 7.93808 144.082 9.20949C150.947 10.4809 151.976 11.5086 153.24 18.419C154.504 11.5152 155.526 10.4809 162.397 9.20949C155.532 7.93808 154.504 6.91041 153.24 0Z" fill="white"/>
<path d="M163.177 12.958C162.371 17.3519 161.723 18.0041 157.353 18.8144C161.723 19.6247 162.371 20.2768 163.177 24.6708C163.982 20.2768 164.631 19.6247 169 18.8144C164.631 18.0041 163.982 17.3519 163.177 12.958Z" fill="white"/>
<path d="M13.4152 41.6076V44.7169H0V24.9541H13.4152V28.0371H3.24899V33.3072H11.8693V36.3375H3.24899V41.6076H13.4152Z" fill="white"/>
<path d="M39.2761 24.9541L31.8873 34.8355L39.2761 44.7169H35.2935L29.7912 37.3388L24.2626 44.7169H20.28L27.6688 34.8355L20.28 24.9541H24.2626L29.7912 32.3322L35.2935 24.9541H39.2761Z" fill="white"/>
<path d="M44.595 34.8353C44.595 29.249 49.1803 24.6641 54.8136 24.6641C59.2417 24.6641 63.0147 27.5099 64.3772 31.4888L61.4164 32.701C60.5256 29.8288 57.9578 27.7998 54.8136 27.7998C50.962 27.7998 47.8702 30.9618 47.8702 34.8353C47.8702 38.7089 50.962 41.8709 54.8136 41.8709C57.9578 41.8709 60.5256 39.8419 61.4164 36.9697L64.4034 38.1819C63.0147 42.1344 59.2417 45.0066 54.8136 45.0066C49.1803 45.0066 44.595 40.4216 44.595 34.8353Z" fill="white"/>
<path d="M72.6045 44.7101V24.9473H75.8535V44.7101H72.6045Z" fill="white"/>
<path d="M90.8932 28.0898H83.7664V24.9541H101.243V28.0898H94.1422V44.7169H90.8932V28.0898Z" fill="white"/>
<path d="M122.571 41.6076V44.7169H109.156V24.9541H122.571V28.0371H112.405V33.3072H121.025V36.3375H112.405V41.6076H122.571Z" fill="white"/>
<path d="M131.401 24.9541H138.868C144.344 24.9541 148.746 29.3546 148.746 34.8355C148.746 40.3164 144.344 44.7169 138.868 44.7169H131.401V24.9541ZM134.65 41.5812H138.79C142.51 41.5812 145.497 38.5509 145.497 34.8355C145.497 31.1201 142.536 28.0898 138.79 28.0898H134.65V41.5812Z" fill="white"/>
</g>
<defs>
<clipPath id="clip0_48_923">
<rect width="169" height="45" fill="white"/>
</clipPath>
</defs>
</svg>
